<svg xmlns="http://www.w3.org/2000/svg" xmlns:xlink="http://www.w3.org/1999/xlink" contentStyleType="text/css" data-diagram-type="SEQUENCE" height="461px" preserveAspectRatio="none" style="width:889px;height:461px;background:#FFFFFF;" version="1.1" viewBox="0 0 889 461" width="889px" zoomAndPan="magnify"><defs/><g><rect fill="none" height="148.4688" style="stroke:#000000;stroke-width:1.5;" width="690.9185" x="10" y="214.8281"/><g><title>Nutzer</title><rect fill="#000000" fill-opacity="0.00000" height="299" width="8" x="42.2764" y="81.2969"/><line style="stroke:#181818;stroke-width:0.5;stroke-dasharray:5.0,5.0;" x1="46" x2="46" y1="81.2969" y2="380.2969"/></g><g><title>FrontEnd</title><rect fill="#000000" fill-opacity="0.00000" height="299" width="8" x="376.5308" y="81.2969"/><line style="stroke:#181818;stroke-width:0.5;stroke-dasharray:5.0,5.0;" x1="379.8599" x2="379.8599" y1="81.2969" y2="380.2969"/></g><g><title>API_Server</title><rect fill="#000000" fill-opacity="0.00000" height="299" width="8" x="642.3892" y="81.2969"/><line style="stroke:#181818;stroke-width:0.5;stroke-dasharray:5.0,5.0;" x1="645.8599" x2="645.8599" y1="81.2969" y2="380.2969"/></g><g><title>Datenbank</title><rect fill="#000000" fill-opacity="0.00000" height="299" width="8" x="833.7959" y="81.2969"/><line style="stroke:#181818;stroke-width:0.5;stroke-dasharray:5.0,5.0;" x1="837.4053" x2="837.4053" y1="81.2969" y2="380.2969"/></g><g class="participant participant-head" data-participant="Nutzer"><text fill="#000000" font-family="sans-serif" font-size="14" lengthAdjust="spacing" textLength="46.5527" x="20" y="77.9951">Nutzer</text><ellipse cx="46.2764" cy="13.5" fill="#E2E2F0" rx="8" ry="8" style="stroke:#181818;stroke-width:0.5;"/><path d="M46.2764,21.5 L46.2764,48.5 M33.2764,29.5 L59.2764,29.5 M46.2764,48.5 L33.2764,63.5 M46.2764,48.5 L59.2764,63.5" fill="none" style="stroke:#181818;stroke-width:0.5;"/></g><g class="participant participant-tail" data-participant="Nutzer"><text fill="#000000" font-family="sans-serif" font-size="14" lengthAdjust="spacing" textLength="46.5527" x="20" y="392.292">Nutzer</text><ellipse cx="46.2764" cy="404.0938" fill="#E2E2F0" rx="8" ry="8" style="stroke:#181818;stroke-width:0.5;"/><path d="M46.2764,412.0938 L46.2764,439.0938 M33.2764,420.0938 L59.2764,420.0938 M46.2764,439.0938 L33.2764,454.0938 M46.2764,439.0938 L59.2764,454.0938" fill="none" style="stroke:#181818;stroke-width:0.5;"/></g><g class="participant participant-head" data-participant="FrontEnd"><rect fill="#E2E2F0" height="30.2969" rx="2.5" ry="2.5" style="stroke:#181818;stroke-width:0.5;" width="77.3418" x="341.8599" y="50"/><text fill="#000000" font-family="sans-serif" font-size="14" lengthAdjust="spacing" textLength="63.3418" x="348.8599" y="69.9951">FrontEnd</text></g><g class="participant participant-tail" data-participant="FrontEnd"><rect fill="#E2E2F0" height="30.2969" rx="2.5" ry="2.5" style="stroke:#181818;stroke-width:0.5;" width="77.3418" x="341.8599" y="379.2969"/><text fill="#000000" font-family="sans-serif" font-size="14" lengthAdjust="spacing" textLength="63.3418" x="348.8599" y="399.292">FrontEnd</text></g><g class="participant participant-head" data-participant="API_Server"><rect fill="#E2E2F0" height="30.2969" rx="2.5" ry="2.5" style="stroke:#181818;stroke-width:0.5;" width="89.0586" x="601.8599" y="50"/><text fill="#000000" font-family="sans-serif" font-size="14" lengthAdjust="spacing" textLength="75.0586" x="608.8599" y="69.9951">API_Server</text></g><g class="participant participant-tail" data-participant="API_Server"><rect fill="#E2E2F0" height="30.2969" rx="2.5" ry="2.5" style="stroke:#181818;stroke-width:0.5;" width="89.0586" x="601.8599" y="379.2969"/><text fill="#000000" font-family="sans-serif" font-size="14" lengthAdjust="spacing" textLength="75.0586" x="608.8599" y="399.292">API_Server</text></g><g class="participant participant-head" data-participant="Datenbank"><rect fill="#E2E2F0" height="30.2969" rx="2.5" ry="2.5" style="stroke:#181818;stroke-width:0.5;" width="90.7813" x="792.4053" y="50"/><text fill="#000000" font-family="sans-serif" font-size="14" lengthAdjust="spacing" textLength="76.7813" x="799.4053" y="69.9951">Datenbank</text></g><g class="participant participant-tail" data-participant="Datenbank"><rect fill="#E2E2F0" height="30.2969" rx="2.5" ry="2.5" style="stroke:#181818;stroke-width:0.5;" width="90.7813" x="792.4053" y="379.2969"/><text fill="#000000" font-family="sans-serif" font-size="14" lengthAdjust="spacing" textLength="76.7813" x="799.4053" y="399.292">Datenbank</text></g><g class="message" data-participant-1="Nutzer" data-participant-2="FrontEnd"><polygon fill="#181818" points="368.5308,108.4297,378.5308,112.4297,368.5308,116.4297,372.5308,112.4297" style="stroke:#181818;stroke-width:1;"/><line style="stroke:#181818;stroke-width:1;" x1="46.2764" x2="374.5308" y1="112.4297" y2="112.4297"/><text fill="#000000" font-family="sans-serif" font-size="13" lengthAdjust="spacing" textLength="134.4497" x="53.2764" y="107.3638">Gibt Login-Daten ein</text></g><g class="message" data-participant-1="FrontEnd" data-participant-2="API_Server"><polygon fill="#181818" points="634.3892,137.5625,644.3892,141.5625,634.3892,145.5625,638.3892,141.5625" style="stroke:#181818;stroke-width:1;"/><line style="stroke:#181818;stroke-width:1;" x1="380.5308" x2="640.3892" y1="141.5625" y2="141.5625"/><text fill="#000000" font-family="sans-serif" font-size="13" lengthAdjust="spacing" textLength="241.8584" x="387.5308" y="136.4966">POST /login {Nutzername, Passwort}</text></g><g class="message" data-participant-1="API_Server" data-participant-2="Datenbank"><polygon fill="#181818" points="825.7959,166.6953,835.7959,170.6953,825.7959,174.6953,829.7959,170.6953" style="stroke:#181818;stroke-width:1;"/><line style="stroke:#181818;stroke-width:1;" x1="646.3892" x2="831.7959" y1="170.6953" y2="170.6953"/><text fill="#000000" font-family="sans-serif" font-size="13" lengthAdjust="spacing" textLength="167.4067" x="653.3892" y="165.6294">Vergleiche Zugangsdaten</text></g><g class="message" data-participant-1="Datenbank" data-participant-2="API_Server"><polygon fill="#181818" points="657.3892,195.8281,647.3892,199.8281,657.3892,203.8281,653.3892,199.8281" style="stroke:#181818;stroke-width:1;"/><line style="stroke:#181818;stroke-width:1;stroke-dasharray:2.0,2.0;" x1="651.3892" x2="836.7959" y1="199.8281" y2="199.8281"/><text fill="#000000" font-family="sans-serif" font-size="13" lengthAdjust="spacing" textLength="97.2397" x="663.3892" y="194.7622">OK oder Fehler</text></g><path d="M10,214.8281 L74.4429,214.8281 L74.4429,221.9609 L64.4429,231.9609 L10,231.9609 L10,214.8281" fill="#EEEEEE" style="stroke:#000000;stroke-width:1.5;"/><rect fill="none" height="148.4688" style="stroke:#000000;stroke-width:1.5;" width="690.9185" x="10" y="214.8281"/><text fill="#000000" font-family="sans-serif" font-size="13" font-weight="bold" lengthAdjust="spacing" textLength="19.4429" x="25" y="227.895">alt</text><text fill="#000000" font-family="sans-serif" font-size="11" font-weight="bold" lengthAdjust="spacing" textLength="148.8438" x="89.4429" y="227.0386">[Zugangsdaten korrekt]</text><g class="message" data-participant-1="API_Server" data-participant-2="FrontEnd"><polygon fill="#181818" points="391.5308,249.0938,381.5308,253.0938,391.5308,257.0938,387.5308,253.0938" style="stroke:#181818;stroke-width:1;"/><line style="stroke:#181818;stroke-width:1;stroke-dasharray:2.0,2.0;" x1="385.5308" x2="645.3892" y1="253.0938" y2="253.0938"/><text fill="#000000" font-family="sans-serif" font-size="13" lengthAdjust="spacing" textLength="172.0723" x="397.5308" y="248.0278">Token / Session-ID senden</text></g><g class="message" data-participant-1="FrontEnd" data-participant-2="Nutzer"><polygon fill="#181818" points="57.2764,278.2266,47.2764,282.2266,57.2764,286.2266,53.2764,282.2266" style="stroke:#181818;stroke-width:1;"/><line style="stroke:#181818;stroke-width:1;stroke-dasharray:2.0,2.0;" x1="51.2764" x2="379.5308" y1="282.2266" y2="282.2266"/><text fill="#000000" font-family="sans-serif" font-size="13" lengthAdjust="spacing" textLength="310.2544" x="63.2764" y="277.1606">Login erfolgreich, weiterleitung zum Dashboard</text></g><line style="stroke:#000000;stroke-width:1;stroke-dasharray:2.0,2.0;" x1="10" x2="700.9185" y1="291.2266" y2="291.2266"/><text fill="#000000" font-family="sans-serif" font-size="11" font-weight="bold" lengthAdjust="spacing" textLength="139.9653" x="15" y="301.437">[Zugangsdaten falsch]</text><g class="message" data-participant-1="API_Server" data-participant-2="FrontEnd"><polygon fill="#181818" points="391.5308,322.1641,381.5308,326.1641,391.5308,330.1641,387.5308,326.1641" style="stroke:#181818;stroke-width:1;"/><line style="stroke:#181818;stroke-width:1;stroke-dasharray:2.0,2.0;" x1="385.5308" x2="645.3892" y1="326.1641" y2="326.1641"/><text fill="#000000" font-family="sans-serif" font-size="13" lengthAdjust="spacing" textLength="101.7021" x="397.5308" y="321.0981">Fehlernachricht</text></g><g class="message" data-participant-1="FrontEnd" data-participant-2="Nutzer"><polygon fill="#181818" points="57.2764,351.2969,47.2764,355.2969,57.2764,359.2969,53.2764,355.2969" style="stroke:#181818;stroke-width:1;"/><line style="stroke:#181818;stroke-width:1;stroke-dasharray:2.0,2.0;" x1="51.2764" x2="379.5308" y1="355.2969" y2="355.2969"/><text fill="#000000" font-family="sans-serif" font-size="13" lengthAdjust="spacing" textLength="185.5039" x="63.2764" y="350.231">Zeige "Falsche Login-Daten"</text></g><!--SRC=[XP4nQyCm48Lt_OeZSqps38L2wX9Qce13Xon5iI-oi78AftC3AVtlFSV5YJEqceJqlVVkIRQKoF3MoXdP72sBB_tHaa3EaUI9gj7XuthvKI1_th4BAqWxIuqnlHDa3uC1pE7PxmHUe_EKNL10JsQuL_Rgg_HwLMnW5ZeSlde_iWUSmjgcT8eit-Q6L_KGh-9tP1VGbpN2jdMMNAgwMtDbilkyrGl4IdSvra6BsI0ZAJIH6HineEisUDnn4njbPr1WIZvIjbn0GgeqkjDTowhgzutc_PC0yZu6nztGKpYX5sHj82qvEBS7RPVgNRHS6Gnft0hsDgIo_cUolXVPicQDa3_csQ9t29FyuegtFpOnsiNy0000]--></g></svg>