<svg xmlns="http://www.w3.org/2000/svg" xmlns:xlink="http://www.w3.org/1999/xlink" contentStyleType="text/css" data-diagram-type="SEQUENCE" height="620px" preserveAspectRatio="none" style="width:921px;height:620px;background:#FFFFFF;" version="1.1" viewBox="0 0 921 620" width="921px" zoomAndPan="magnify"><defs/><g><rect fill="none" height="162.6016" style="stroke:#000000;stroke-width:1.5;" width="338.7461" x="189.7925" y="127.4297"/><g><title>JobSuchende</title><rect fill="#000000" fill-opacity="0.00000" height="458.7969" width="8" x="49.4487" y="81.2969"/><line style="stroke:#181818;stroke-width:0.5;stroke-dasharray:5.0,5.0;" x1="53" x2="53" y1="81.2969" y2="540.0938"/></g><g><title>FrontEnd</title><rect fill="#000000" fill-opacity="0.00000" height="458.7969" width="8" x="234.4634" y="81.2969"/><line style="stroke:#181818;stroke-width:0.5;stroke-dasharray:5.0,5.0;" x1="237.7925" x2="237.7925" y1="81.2969" y2="540.0938"/></g><g><title>BackEnd</title><rect fill="#000000" fill-opacity="0.00000" height="458.7969" width="8" x="477.2417" y="81.2969"/><line style="stroke:#181818;stroke-width:0.5;stroke-dasharray:5.0,5.0;" x1="480.9448" x2="480.9448" y1="81.2969" y2="540.0938"/></g><g><title>Datenbank</title><rect fill="#000000" fill-opacity="0.00000" height="458.7969" width="8" x="865.7368" y="81.2969"/><line style="stroke:#181818;stroke-width:0.5;stroke-dasharray:5.0,5.0;" x1="869.3462" x2="869.3462" y1="81.2969" y2="540.0938"/></g><g class="participant participant-head" data-participant="JobSuchende"><text fill="#000000" font-family="sans-serif" font-size="14" lengthAdjust="spacing" textLength="90.8975" x="5" y="77.9951">JobSuchende</text><ellipse cx="53.4487" cy="13.5" fill="#E2E2F0" rx="8" ry="8" style="stroke:#181818;stroke-width:0.5;"/><path d="M53.4487,21.5 L53.4487,48.5 M40.4487,29.5 L66.4487,29.5 M53.4487,48.5 L40.4487,63.5 M53.4487,48.5 L66.4487,63.5" fill="none" style="stroke:#181818;stroke-width:0.5;"/></g><g class="participant participant-tail" data-participant="JobSuchende"><text fill="#000000" font-family="sans-serif" font-size="14" lengthAdjust="spacing" textLength="90.8975" x="5" y="552.0889">JobSuchende</text><ellipse cx="53.4487" cy="563.8906" fill="#E2E2F0" rx="8" ry="8" style="stroke:#181818;stroke-width:0.5;"/><path d="M53.4487,571.8906 L53.4487,598.8906 M40.4487,579.8906 L66.4487,579.8906 M53.4487,598.8906 L40.4487,613.8906 M53.4487,598.8906 L66.4487,613.8906" fill="none" style="stroke:#181818;stroke-width:0.5;"/></g><g class="participant participant-head" data-participant="FrontEnd"><rect fill="#E2E2F0" height="30.2969" rx="2.5" ry="2.5" style="stroke:#181818;stroke-width:0.5;" width="77.3418" x="199.7925" y="50"/><text fill="#000000" font-family="sans-serif" font-size="14" lengthAdjust="spacing" textLength="63.3418" x="206.7925" y="69.9951">FrontEnd</text></g><g class="participant participant-tail" data-participant="FrontEnd"><rect fill="#E2E2F0" height="30.2969" rx="2.5" ry="2.5" style="stroke:#181818;stroke-width:0.5;" width="77.3418" x="199.7925" y="539.0938"/><text fill="#000000" font-family="sans-serif" font-size="14" lengthAdjust="spacing" textLength="63.3418" x="206.7925" y="559.0889">FrontEnd</text></g><g class="participant participant-head" data-participant="BackEnd"><rect fill="#E2E2F0" height="30.2969" rx="2.5" ry="2.5" style="stroke:#181818;stroke-width:0.5;" width="74.5938" x="443.9448" y="50"/><text fill="#000000" font-family="sans-serif" font-size="14" lengthAdjust="spacing" textLength="60.5938" x="450.9448" y="69.9951">BackEnd</text></g><g class="participant participant-tail" data-participant="BackEnd"><rect fill="#E2E2F0" height="30.2969" rx="2.5" ry="2.5" style="stroke:#181818;stroke-width:0.5;" width="74.5938" x="443.9448" y="539.0938"/><text fill="#000000" font-family="sans-serif" font-size="14" lengthAdjust="spacing" textLength="60.5938" x="450.9448" y="559.0889">BackEnd</text></g><g class="participant participant-head" data-participant="Datenbank"><rect fill="#E2E2F0" height="30.2969" rx="2.5" ry="2.5" style="stroke:#181818;stroke-width:0.5;" width="90.7813" x="824.3462" y="50"/><text fill="#000000" font-family="sans-serif" font-size="14" lengthAdjust="spacing" textLength="76.7813" x="831.3462" y="69.9951">Datenbank</text></g><g class="participant participant-tail" data-participant="Datenbank"><rect fill="#E2E2F0" height="30.2969" rx="2.5" ry="2.5" style="stroke:#181818;stroke-width:0.5;" width="90.7813" x="824.3462" y="539.0938"/><text fill="#000000" font-family="sans-serif" font-size="14" lengthAdjust="spacing" textLength="76.7813" x="831.3462" y="559.0889">Datenbank</text></g><g class="message" data-participant-1="JobSuchende" data-participant-2="FrontEnd"><polygon fill="#181818" points="226.4634,108.4297,236.4634,112.4297,226.4634,116.4297,230.4634,112.4297" style="stroke:#181818;stroke-width:1;"/><line style="stroke:#181818;stroke-width:1;" x1="53.4487" x2="232.4634" y1="112.4297" y2="112.4297"/><text fill="#000000" font-family="sans-serif" font-size="13" lengthAdjust="spacing" textLength="131.1743" x="60.4487" y="107.3638">swipe right (auf Job)</text></g><path d="M189.7925,127.4297 L254.2354,127.4297 L254.2354,134.5625 L244.2354,144.5625 L189.7925,144.5625 L189.7925,127.4297" fill="#EEEEEE" style="stroke:#000000;stroke-width:1.5;"/><rect fill="none" height="162.6016" style="stroke:#000000;stroke-width:1.5;" width="338.7461" x="189.7925" y="127.4297"/><text fill="#000000" font-family="sans-serif" font-size="13" font-weight="bold" lengthAdjust="spacing" textLength="19.4429" x="204.7925" y="140.4966">alt</text><text fill="#000000" font-family="sans-serif" font-size="11" font-weight="bold" lengthAdjust="spacing" textLength="199.5845" x="269.2354" y="139.6401">[Personalisierter Brief aktiviert]</text><g class="message" data-participant-1="FrontEnd" data-participant-2="FrontEnd"><line style="stroke:#181818;stroke-width:1;" x1="238.4634" x2="280.4634" y1="165.6953" y2="165.6953"/><line style="stroke:#181818;stroke-width:1;" x1="280.4634" x2="280.4634" y1="165.6953" y2="178.6953"/><line style="stroke:#181818;stroke-width:1;" x1="239.4634" x2="280.4634" y1="178.6953" y2="178.6953"/><polygon fill="#181818" points="249.4634,174.6953,239.4634,178.6953,249.4634,182.6953,245.4634,178.6953" style="stroke:#181818;stroke-width:1;"/><text fill="#000000" font-family="sans-serif" font-size="13" lengthAdjust="spacing" textLength="118.4663" x="245.4634" y="160.6294">&#214;ffnet Brief-Editor</text></g><g class="message" data-participant-1="FrontEnd" data-participant-2="BackEnd"><polygon fill="#181818" points="469.2417,218.9609,479.2417,222.9609,469.2417,226.9609,473.2417,222.9609" style="stroke:#181818;stroke-width:1;"/><line style="stroke:#181818;stroke-width:1;" x1="238.4634" x2="475.2417" y1="222.9609" y2="222.9609"/><text fill="#000000" font-family="sans-serif" font-size="13" lengthAdjust="spacing" textLength="115.9844" x="245.4634" y="202.7622">POST /bewerbung</text><text fill="#000000" font-family="sans-serif" font-size="13" lengthAdjust="spacing" textLength="179.4673" x="245.4634" y="217.895">(mit personalisiertem Brief)</text></g><line style="stroke:#000000;stroke-width:1;stroke-dasharray:2.0,2.0;" x1="189.7925" x2="528.5386" y1="231.9609" y2="231.9609"/><text fill="#000000" font-family="sans-serif" font-size="11" font-weight="bold" lengthAdjust="spacing" textLength="71.2959" x="194.7925" y="242.1714">[Kein Brief]</text><g class="message" data-participant-1="FrontEnd" data-participant-2="BackEnd"><polygon fill="#181818" points="469.2417,278.0313,479.2417,282.0313,469.2417,286.0313,473.2417,282.0313" style="stroke:#181818;stroke-width:1;"/><line style="stroke:#181818;stroke-width:1;" x1="238.4634" x2="475.2417" y1="282.0313" y2="282.0313"/><text fill="#000000" font-family="sans-serif" font-size="13" lengthAdjust="spacing" textLength="115.9844" x="245.4634" y="261.8325">POST /bewerbung</text><text fill="#000000" font-family="sans-serif" font-size="13" lengthAdjust="spacing" textLength="77.1558" x="245.4634" y="276.9653">(ohne Brief)</text></g><g class="message" data-participant-1="BackEnd" data-participant-2="Datenbank"><polygon fill="#181818" points="857.7368,314.1641,867.7368,318.1641,857.7368,322.1641,861.7368,318.1641" style="stroke:#181818;stroke-width:1;"/><line style="stroke:#181818;stroke-width:1;" x1="481.2417" x2="863.7368" y1="318.1641" y2="318.1641"/><text fill="#000000" font-family="sans-serif" font-size="13" lengthAdjust="spacing" textLength="290.1514" x="488.2417" y="313.0981">F&#252;ge Job zu Bewerbungen des Nutzers hinzu</text></g><g class="message" data-participant-1="Datenbank" data-participant-2="BackEnd"><polygon fill="#181818" points="492.2417,343.2969,482.2417,347.2969,492.2417,351.2969,488.2417,347.2969" style="stroke:#181818;stroke-width:1;"/><line style="stroke:#181818;stroke-width:1;stroke-dasharray:2.0,2.0;" x1="486.2417" x2="868.7368" y1="347.2969" y2="347.2969"/><text fill="#000000" font-family="sans-serif" font-size="13" lengthAdjust="spacing" textLength="18.7573" x="498.2417" y="342.231">OK</text></g><g class="message" data-participant-1="BackEnd" data-participant-2="Datenbank"><polygon fill="#181818" points="857.7368,372.4297,867.7368,376.4297,857.7368,380.4297,861.7368,376.4297" style="stroke:#181818;stroke-width:1;"/><line style="stroke:#181818;stroke-width:1;" x1="481.2417" x2="863.7368" y1="376.4297" y2="376.4297"/><text fill="#000000" font-family="sans-serif" font-size="13" lengthAdjust="spacing" textLength="364.4951" x="488.2417" y="371.3638">F&#252;ge Nutzer zur Bewerberliste des Unternehmens hinzu</text></g><g class="message" data-participant-1="Datenbank" data-participant-2="BackEnd"><polygon fill="#181818" points="492.2417,401.5625,482.2417,405.5625,492.2417,409.5625,488.2417,405.5625" style="stroke:#181818;stroke-width:1;"/><line style="stroke:#181818;stroke-width:1;stroke-dasharray:2.0,2.0;" x1="486.2417" x2="868.7368" y1="405.5625" y2="405.5625"/><text fill="#000000" font-family="sans-serif" font-size="13" lengthAdjust="spacing" textLength="18.7573" x="498.2417" y="400.4966">OK</text></g><g class="message" data-participant-1="BackEnd" data-participant-2="Datenbank"><polygon fill="#181818" points="857.7368,430.6953,867.7368,434.6953,857.7368,438.6953,861.7368,434.6953" style="stroke:#181818;stroke-width:1;"/><line style="stroke:#181818;stroke-width:1;" x1="481.2417" x2="863.7368" y1="434.6953" y2="434.6953"/><text fill="#000000" font-family="sans-serif" font-size="13" lengthAdjust="spacing" textLength="236.501" x="488.2417" y="429.6294">GET /next_job (n&#228;chste Job-Anzeige)</text></g><g class="message" data-participant-1="Datenbank" data-participant-2="BackEnd"><polygon fill="#181818" points="492.2417,459.8281,482.2417,463.8281,492.2417,467.8281,488.2417,463.8281" style="stroke:#181818;stroke-width:1;"/><line style="stroke:#181818;stroke-width:1;stroke-dasharray:2.0,2.0;" x1="486.2417" x2="868.7368" y1="463.8281" y2="463.8281"/><text fill="#000000" font-family="sans-serif" font-size="13" lengthAdjust="spacing" textLength="114.6387" x="498.2417" y="458.7622">Neue Job-Anzeige</text></g><g class="message" data-participant-1="BackEnd" data-participant-2="FrontEnd"><polygon fill="#181818" points="249.4634,488.9609,239.4634,492.9609,249.4634,496.9609,245.4634,492.9609" style="stroke:#181818;stroke-width:1;"/><line style="stroke:#181818;stroke-width:1;stroke-dasharray:2.0,2.0;" x1="243.4634" x2="480.2417" y1="492.9609" y2="492.9609"/><text fill="#000000" font-family="sans-serif" font-size="13" lengthAdjust="spacing" textLength="218.7783" x="255.4634" y="487.895">Neue Anzeige + Swipe-Animation</text></g><g class="message" data-participant-1="FrontEnd" data-participant-2="JobSuchende"><polygon fill="#181818" points="64.4487,518.0938,54.4487,522.0938,64.4487,526.0938,60.4487,522.0938" style="stroke:#181818;stroke-width:1;"/><line style="stroke:#181818;stroke-width:1;stroke-dasharray:2.0,2.0;" x1="58.4487" x2="237.4634" y1="522.0938" y2="522.0938"/><text fill="#000000" font-family="sans-serif" font-size="13" lengthAdjust="spacing" textLength="161.0146" x="70.4487" y="517.0278">Neue Job-Karte anzeigen</text></g><!--SRC=[fPB1IiD048Rl-nHpR97WtODWiHKij8NgJP1DCad6DfEmcRMI1_49V0nlVJ4dJPis5H5nZyF_V__CxDX82WVtHRZqKOOSeocj4ugej2mmSGNBcEDUSMIZrNdjrWfoQ7bbp0aBWkiE0LTGRQX4S9Hc0WFhaoPsQEnQO86kAjYkgI9qWWv6ZZ01kn9wRIe6z7MaFdNxdYICqbg2SKmwq3VzlcULB-RB1xWCSOCkz9m-yI0dWRBVGDxIXWRN5S8KYTl2dxX5njXnT5_c85PVjozrJhQVAJQxWDh3w010XXWhc7cfjJV8Y6jlZhQW5pwV_a9lCHhWzWdeT5R1NSOZwyePinpv7q5tOvsVyKsUNtIK0My_egn9qC626wwHKXp-o9sXxocF8VtFtkds6hY0PNDHwg7S2XLiZb-ZjjD3F4cOwjaYs9R1Nm00]--></g></svg>