<svg xmlns="http://www.w3.org/2000/svg" xmlns:xlink="http://www.w3.org/1999/xlink" contentStyleType="text/css" data-diagram-type="SEQUENCE" height="356px" preserveAspectRatio="none" style="width:781px;height:356px;background:#FFFFFF;" version="1.1" viewBox="0 0 781 356" width="781px" zoomAndPan="magnify"><defs/><g><g><title>Nutzer</title><rect fill="#000000" fill-opacity="0.00000" height="194.7969" width="8" x="27.2764" y="81.2969"/><line style="stroke:#181818;stroke-width:0.5;stroke-dasharray:5.0,5.0;" x1="31" x2="31" y1="81.2969" y2="276.0938"/></g><g><title>FrontEnd</title><rect fill="#000000" fill-opacity="0.00000" height="194.7969" width="8" x="258.5591" y="81.2969"/><line style="stroke:#181818;stroke-width:0.5;stroke-dasharray:5.0,5.0;" x1="261.8882" x2="261.8882" y1="81.2969" y2="276.0938"/></g><g><title>API_Server</title><rect fill="#000000" fill-opacity="0.00000" height="194.7969" width="8" x="590.7441" y="81.2969"/><line style="stroke:#181818;stroke-width:0.5;stroke-dasharray:5.0,5.0;" x1="594.2148" x2="594.2148" y1="81.2969" y2="276.0938"/></g><g><title>Datenbank</title><rect fill="#000000" fill-opacity="0.00000" height="194.7969" width="8" x="725.7075" y="81.2969"/><line style="stroke:#181818;stroke-width:0.5;stroke-dasharray:5.0,5.0;" x1="729.3169" x2="729.3169" y1="81.2969" y2="276.0938"/></g><g class="participant participant-head" data-participant="Nutzer"><text fill="#000000" font-family="sans-serif" font-size="14" lengthAdjust="spacing" textLength="46.5527" x="5" y="77.9951">Nutzer</text><ellipse cx="31.2764" cy="13.5" fill="#E2E2F0" rx="8" ry="8" style="stroke:#181818;stroke-width:0.5;"/><path d="M31.2764,21.5 L31.2764,48.5 M18.2764,29.5 L44.2764,29.5 M31.2764,48.5 L18.2764,63.5 M31.2764,48.5 L44.2764,63.5" fill="none" style="stroke:#181818;stroke-width:0.5;"/></g><g class="participant participant-tail" data-participant="Nutzer"><text fill="#000000" font-family="sans-serif" font-size="14" lengthAdjust="spacing" textLength="46.5527" x="5" y="288.0889">Nutzer</text><ellipse cx="31.2764" cy="299.8906" fill="#E2E2F0" rx="8" ry="8" style="stroke:#181818;stroke-width:0.5;"/><path d="M31.2764,307.8906 L31.2764,334.8906 M18.2764,315.8906 L44.2764,315.8906 M31.2764,334.8906 L18.2764,349.8906 M31.2764,334.8906 L44.2764,349.8906" fill="none" style="stroke:#181818;stroke-width:0.5;"/></g><g class="participant participant-head" data-participant="FrontEnd"><rect fill="#E2E2F0" height="30.2969" rx="2.5" ry="2.5" style="stroke:#181818;stroke-width:0.5;" width="77.3418" x="223.8882" y="50"/><text fill="#000000" font-family="sans-serif" font-size="14" lengthAdjust="spacing" textLength="63.3418" x="230.8882" y="69.9951">FrontEnd</text></g><g class="participant participant-tail" data-participant="FrontEnd"><rect fill="#E2E2F0" height="30.2969" rx="2.5" ry="2.5" style="stroke:#181818;stroke-width:0.5;" width="77.3418" x="223.8882" y="275.0938"/><text fill="#000000" font-family="sans-serif" font-size="14" lengthAdjust="spacing" textLength="63.3418" x="230.8882" y="295.0889">FrontEnd</text></g><g class="participant participant-head" data-participant="API_Server"><rect fill="#E2E2F0" height="30.2969" rx="2.5" ry="2.5" style="stroke:#181818;stroke-width:0.5;" width="89.0586" x="550.2148" y="50"/><text fill="#000000" font-family="sans-serif" font-size="14" lengthAdjust="spacing" textLength="75.0586" x="557.2148" y="69.9951">API_Server</text></g><g class="participant participant-tail" data-participant="API_Server"><rect fill="#E2E2F0" height="30.2969" rx="2.5" ry="2.5" style="stroke:#181818;stroke-width:0.5;" width="89.0586" x="550.2148" y="275.0938"/><text fill="#000000" font-family="sans-serif" font-size="14" lengthAdjust="spacing" textLength="75.0586" x="557.2148" y="295.0889">API_Server</text></g><g class="participant participant-head" data-participant="Datenbank"><rect fill="#E2E2F0" height="30.2969" rx="2.5" ry="2.5" style="stroke:#181818;stroke-width:0.5;" width="90.7813" x="684.3169" y="50"/><text fill="#000000" font-family="sans-serif" font-size="14" lengthAdjust="spacing" textLength="76.7813" x="691.3169" y="69.9951">Datenbank</text></g><g class="participant participant-tail" data-participant="Datenbank"><rect fill="#E2E2F0" height="30.2969" rx="2.5" ry="2.5" style="stroke:#181818;stroke-width:0.5;" width="90.7813" x="684.3169" y="275.0938"/><text fill="#000000" font-family="sans-serif" font-size="14" lengthAdjust="spacing" textLength="76.7813" x="691.3169" y="295.0889">Datenbank</text></g><g class="message" data-participant-1="Nutzer" data-participant-2="FrontEnd"><polygon fill="#181818" points="250.5591,108.4297,260.5591,112.4297,250.5591,116.4297,254.5591,112.4297" style="stroke:#181818;stroke-width:1;"/><line style="stroke:#181818;stroke-width:1;" x1="31.2764" x2="256.5591" y1="112.4297" y2="112.4297"/><text fill="#000000" font-family="sans-serif" font-size="13" lengthAdjust="spacing" textLength="155.8286" x="38.2764" y="107.3638">Klickt auf "Registrieren"</text></g><g class="message" data-participant-1="FrontEnd" data-participant-2="API_Server"><polygon fill="#181818" points="582.7441,137.5625,592.7441,141.5625,582.7441,145.5625,586.7441,141.5625" style="stroke:#181818;stroke-width:1;"/><line style="stroke:#181818;stroke-width:1;" x1="262.5591" x2="588.7441" y1="141.5625" y2="141.5625"/><text fill="#000000" font-family="sans-serif" font-size="13" lengthAdjust="spacing" textLength="308.1851" x="269.5591" y="136.4966">POST /register {Nutzername, Passwort, E-Mail}</text></g><g class="message" data-participant-1="API_Server" data-participant-2="Datenbank"><polygon fill="#181818" points="717.7075,166.6953,727.7075,170.6953,717.7075,174.6953,721.7075,170.6953" style="stroke:#181818;stroke-width:1;"/><line style="stroke:#181818;stroke-width:1;" x1="594.7441" x2="723.7075" y1="170.6953" y2="170.6953"/><text fill="#000000" font-family="sans-serif" font-size="13" lengthAdjust="spacing" textLength="110.9634" x="601.7441" y="165.6294">Nutzer speichern</text></g><g class="message" data-participant-1="Datenbank" data-participant-2="API_Server"><polygon fill="#181818" points="605.7441,195.8281,595.7441,199.8281,605.7441,203.8281,601.7441,199.8281" style="stroke:#181818;stroke-width:1;"/><line style="stroke:#181818;stroke-width:1;stroke-dasharray:2.0,2.0;" x1="599.7441" x2="728.7075" y1="199.8281" y2="199.8281"/><text fill="#000000" font-family="sans-serif" font-size="13" lengthAdjust="spacing" textLength="101.334" x="611.7441" y="194.7622">Best&#228;tigung OK</text></g><g class="message" data-participant-1="API_Server" data-participant-2="FrontEnd"><polygon fill="#181818" points="273.5591,224.9609,263.5591,228.9609,273.5591,232.9609,269.5591,228.9609" style="stroke:#181818;stroke-width:1;"/><line style="stroke:#181818;stroke-width:1;stroke-dasharray:2.0,2.0;" x1="267.5591" x2="593.7441" y1="228.9609" y2="228.9609"/><text fill="#000000" font-family="sans-serif" font-size="13" lengthAdjust="spacing" textLength="162.0049" x="279.5591" y="223.895">Registrierung erfolgreich</text></g><g class="message" data-participant-1="FrontEnd" data-participant-2="Nutzer"><polygon fill="#181818" points="42.2764,254.0938,32.2764,258.0938,42.2764,262.0938,38.2764,258.0938" style="stroke:#181818;stroke-width:1;"/><line style="stroke:#181818;stroke-width:1;stroke-dasharray:2.0,2.0;" x1="36.2764" x2="261.5591" y1="258.0938" y2="258.0938"/><text fill="#000000" font-family="sans-serif" font-size="13" lengthAdjust="spacing" textLength="207.2827" x="48.2764" y="253.0278">Zeige: Registrierung erfolgreich</text></g><!--SRC=[VO_1Ri9034Jl-nKMPoBk792e2XAAMYBIKo-L6vp5IjYDl4uhjUhVz4_wOrqWIWW7hkEPDnuir0iyj_f5OXeKvO8RT0fhyKvNRZyIbzdcBIVvkF4-ef9xHrSPSo51ikW1C8Uqvg9ImBQ4oOui1nKc8JSnlIa61dYCPDly1MPoDaVX-y9rUAGfP1Z2fnUTmYfvGgv_p5KqWlft8gVx9pJ4nI42p71CRZiVAEZVhx9jdOLjEgAE1mqZJbQIqjTMJWrNWsAYAv_3Ax6bUx5_]--></g></svg>