<svg xmlns="http://www.w3.org/2000/svg" xmlns:xlink="http://www.w3.org/1999/xlink" contentStyleType="text/css" data-diagram-type="SEQUENCE" height="617px" preserveAspectRatio="none" style="width:690px;height:617px;background:#FFFFFF;" version="1.1" viewBox="0 0 690 617" width="690px" zoomAndPan="magnify"><defs/><g><g><title>Nutzer</title><rect fill="#000000" fill-opacity="0.00000" height="455.8594" width="8" x="27.2764" y="81.2969"/><line style="stroke:#181818;stroke-width:0.5;stroke-dasharray:5.0,5.0;" x1="31" x2="31" y1="81.2969" y2="537.1563"/></g><g><title>FrontEnd</title><rect fill="#000000" fill-opacity="0.00000" height="455.8594" width="8" x="249.7676" y="81.2969"/><line style="stroke:#181818;stroke-width:0.5;stroke-dasharray:5.0,5.0;" x1="253.0967" x2="253.0967" y1="81.2969" y2="537.1563"/></g><g><title>BackEnd</title><rect fill="#000000" fill-opacity="0.00000" height="455.8594" width="8" x="487.2329" y="81.2969"/><line style="stroke:#181818;stroke-width:0.5;stroke-dasharray:5.0,5.0;" x1="490.936" x2="490.936" y1="81.2969" y2="537.1563"/></g><g><title>Datenbank</title><rect fill="#000000" fill-opacity="0.00000" height="455.8594" width="8" x="629.312" y="81.2969"/><line style="stroke:#181818;stroke-width:0.5;stroke-dasharray:5.0,5.0;" x1="632.9214" x2="632.9214" y1="81.2969" y2="537.1563"/></g><g class="participant participant-head" data-participant="Nutzer"><text fill="#000000" font-family="sans-serif" font-size="14" lengthAdjust="spacing" textLength="46.5527" x="5" y="77.9951">Nutzer</text><ellipse cx="31.2764" cy="13.5" fill="#E2E2F0" rx="8" ry="8" style="stroke:#181818;stroke-width:0.5;"/><path d="M31.2764,21.5 L31.2764,48.5 M18.2764,29.5 L44.2764,29.5 M31.2764,48.5 L18.2764,63.5 M31.2764,48.5 L44.2764,63.5" fill="none" style="stroke:#181818;stroke-width:0.5;"/></g><g class="participant participant-tail" data-participant="Nutzer"><text fill="#000000" font-family="sans-serif" font-size="14" lengthAdjust="spacing" textLength="46.5527" x="5" y="549.1514">Nutzer</text><ellipse cx="31.2764" cy="560.9531" fill="#E2E2F0" rx="8" ry="8" style="stroke:#181818;stroke-width:0.5;"/><path d="M31.2764,568.9531 L31.2764,595.9531 M18.2764,576.9531 L44.2764,576.9531 M31.2764,595.9531 L18.2764,610.9531 M31.2764,595.9531 L44.2764,610.9531" fill="none" style="stroke:#181818;stroke-width:0.5;"/></g><g class="participant participant-head" data-participant="FrontEnd"><rect fill="#E2E2F0" height="30.2969" rx="2.5" ry="2.5" style="stroke:#181818;stroke-width:0.5;" width="77.3418" x="215.0967" y="50"/><text fill="#000000" font-family="sans-serif" font-size="14" lengthAdjust="spacing" textLength="63.3418" x="222.0967" y="69.9951">FrontEnd</text></g><g class="participant participant-tail" data-participant="FrontEnd"><rect fill="#E2E2F0" height="30.2969" rx="2.5" ry="2.5" style="stroke:#181818;stroke-width:0.5;" width="77.3418" x="215.0967" y="536.1563"/><text fill="#000000" font-family="sans-serif" font-size="14" lengthAdjust="spacing" textLength="63.3418" x="222.0967" y="556.1514">FrontEnd</text></g><g class="participant participant-head" data-participant="BackEnd"><rect fill="#E2E2F0" height="30.2969" rx="2.5" ry="2.5" style="stroke:#181818;stroke-width:0.5;" width="74.5938" x="453.936" y="50"/><text fill="#000000" font-family="sans-serif" font-size="14" lengthAdjust="spacing" textLength="60.5938" x="460.936" y="69.9951">BackEnd</text></g><g class="participant participant-tail" data-participant="BackEnd"><rect fill="#E2E2F0" height="30.2969" rx="2.5" ry="2.5" style="stroke:#181818;stroke-width:0.5;" width="74.5938" x="453.936" y="536.1563"/><text fill="#000000" font-family="sans-serif" font-size="14" lengthAdjust="spacing" textLength="60.5938" x="460.936" y="556.1514">BackEnd</text></g><g class="participant participant-head" data-participant="Datenbank"><rect fill="#E2E2F0" height="30.2969" rx="2.5" ry="2.5" style="stroke:#181818;stroke-width:0.5;" width="90.7813" x="587.9214" y="50"/><text fill="#000000" font-family="sans-serif" font-size="14" lengthAdjust="spacing" textLength="76.7813" x="594.9214" y="69.9951">Datenbank</text></g><g class="participant participant-tail" data-participant="Datenbank"><rect fill="#E2E2F0" height="30.2969" rx="2.5" ry="2.5" style="stroke:#181818;stroke-width:0.5;" width="90.7813" x="587.9214" y="536.1563"/><text fill="#000000" font-family="sans-serif" font-size="14" lengthAdjust="spacing" textLength="76.7813" x="594.9214" y="556.1514">Datenbank</text></g><rect fill="#EEEEEE" height="3" style="stroke:#EEEEEE;stroke-width:1;" width="683.7026" x="0" y="111.8633"/><line style="stroke:#000000;stroke-width:1;" x1="0" x2="683.7026" y1="111.8633" y2="111.8633"/><line style="stroke:#000000;stroke-width:1;" x1="0" x2="683.7026" y1="114.8633" y2="114.8633"/><rect fill="#EEEEEE" height="23.1328" style="stroke:#000000;stroke-width:2;" width="262.0474" x="210.8276" y="101.2969"/><text fill="#000000" font-family="sans-serif" font-size="13" font-weight="bold" lengthAdjust="spacing" textLength="243.5215" x="216.8276" y="117.3638">Bewerbungs-Templates anzeigen</text><g class="message" data-participant-1="Nutzer" data-participant-2="FrontEnd"><polygon fill="#181818" points="241.7676,151.5625,251.7676,155.5625,241.7676,159.5625,245.7676,155.5625" style="stroke:#181818;stroke-width:1;"/><line style="stroke:#181818;stroke-width:1;" x1="31.2764" x2="247.7676" y1="155.5625" y2="155.5625"/><text fill="#000000" font-family="sans-serif" font-size="13" lengthAdjust="spacing" textLength="198.4912" x="38.2764" y="150.4966">&#214;ffnet Bewerbungs-Templates</text></g><g class="message" data-participant-1="FrontEnd" data-participant-2="BackEnd"><polygon fill="#181818" points="479.2329,180.6953,489.2329,184.6953,479.2329,188.6953,483.2329,184.6953" style="stroke:#181818;stroke-width:1;"/><line style="stroke:#181818;stroke-width:1;" x1="253.7676" x2="485.2329" y1="184.6953" y2="184.6953"/><text fill="#000000" font-family="sans-serif" font-size="13" lengthAdjust="spacing" textLength="100.1978" x="260.7676" y="179.6294">GET /templates</text></g><g class="message" data-participant-1="BackEnd" data-participant-2="Datenbank"><polygon fill="#181818" points="621.312,209.8281,631.312,213.8281,621.312,217.8281,625.312,213.8281" style="stroke:#181818;stroke-width:1;"/><line style="stroke:#181818;stroke-width:1;" x1="491.2329" x2="627.312" y1="213.8281" y2="213.8281"/><text fill="#000000" font-family="sans-serif" font-size="13" lengthAdjust="spacing" textLength="103.8921" x="498.2329" y="208.7622">Lade Templates</text></g><g class="message" data-participant-1="Datenbank" data-participant-2="BackEnd"><polygon fill="#181818" points="502.2329,238.9609,492.2329,242.9609,502.2329,246.9609,498.2329,242.9609" style="stroke:#181818;stroke-width:1;"/><line style="stroke:#181818;stroke-width:1;stroke-dasharray:2.0,2.0;" x1="496.2329" x2="632.312" y1="242.9609" y2="242.9609"/><text fill="#000000" font-family="sans-serif" font-size="13" lengthAdjust="spacing" textLength="68.3008" x="508.2329" y="237.895">Templates</text></g><g class="message" data-participant-1="BackEnd" data-participant-2="FrontEnd"><polygon fill="#181818" points="264.7676,268.0938,254.7676,272.0938,264.7676,276.0938,260.7676,272.0938" style="stroke:#181818;stroke-width:1;"/><line style="stroke:#181818;stroke-width:1;stroke-dasharray:2.0,2.0;" x1="258.7676" x2="490.2329" y1="272.0938" y2="272.0938"/><text fill="#000000" font-family="sans-serif" font-size="13" lengthAdjust="spacing" textLength="68.3008" x="270.7676" y="267.0278">Templates</text></g><g class="message" data-participant-1="FrontEnd" data-participant-2="Nutzer"><polygon fill="#181818" points="42.2764,297.2266,32.2764,301.2266,42.2764,305.2266,38.2764,301.2266" style="stroke:#181818;stroke-width:1;"/><line style="stroke:#181818;stroke-width:1;stroke-dasharray:2.0,2.0;" x1="36.2764" x2="252.7676" y1="301.2266" y2="301.2266"/><text fill="#000000" font-family="sans-serif" font-size="13" lengthAdjust="spacing" textLength="106.2979" x="48.2764" y="296.1606">Zeigt Templates</text></g><rect fill="#EEEEEE" height="3" style="stroke:#EEEEEE;stroke-width:1;" width="683.7026" x="0" y="329.793"/><line style="stroke:#000000;stroke-width:1;" x1="0" x2="683.7026" y1="329.793" y2="329.793"/><line style="stroke:#000000;stroke-width:1;" x1="0" x2="683.7026" y1="332.793" y2="332.793"/><rect fill="#EEEEEE" height="23.1328" style="stroke:#000000;stroke-width:2;" width="145.7139" x="268.9944" y="319.2266"/><text fill="#000000" font-family="sans-serif" font-size="13" font-weight="bold" lengthAdjust="spacing" textLength="127.188" x="274.9944" y="335.2935">Entwurf erstellen</text><g class="message" data-participant-1="Nutzer" data-participant-2="FrontEnd"><polygon fill="#181818" points="241.7676,369.4922,251.7676,373.4922,241.7676,377.4922,245.7676,373.4922" style="stroke:#181818;stroke-width:1;"/><line style="stroke:#181818;stroke-width:1;" x1="31.2764" x2="247.7676" y1="373.4922" y2="373.4922"/><text fill="#000000" font-family="sans-serif" font-size="13" lengthAdjust="spacing" textLength="174.0781" x="38.2764" y="368.4263">W&#228;hlt Template &amp; f&#252;llt aus</text></g><g class="message" data-participant-1="FrontEnd" data-participant-2="BackEnd"><polygon fill="#181818" points="479.2329,398.625,489.2329,402.625,479.2329,406.625,483.2329,402.625" style="stroke:#181818;stroke-width:1;"/><line style="stroke:#181818;stroke-width:1;" x1="253.7676" x2="485.2329" y1="402.625" y2="402.625"/><text fill="#000000" font-family="sans-serif" font-size="13" lengthAdjust="spacing" textLength="213.4653" x="260.7676" y="397.5591">POST /entwurf (mit Nutzerdaten)</text></g><g class="message" data-participant-1="BackEnd" data-participant-2="Datenbank"><polygon fill="#181818" points="621.312,427.7578,631.312,431.7578,621.312,435.7578,625.312,431.7578" style="stroke:#181818;stroke-width:1;"/><line style="stroke:#181818;stroke-width:1;" x1="491.2329" x2="627.312" y1="431.7578" y2="431.7578"/><text fill="#000000" font-family="sans-serif" font-size="13" lengthAdjust="spacing" textLength="118.0791" x="498.2329" y="426.6919">Entwurf speichern</text></g><g class="message" data-participant-1="Datenbank" data-participant-2="BackEnd"><polygon fill="#181818" points="502.2329,456.8906,492.2329,460.8906,502.2329,464.8906,498.2329,460.8906" style="stroke:#181818;stroke-width:1;"/><line style="stroke:#181818;stroke-width:1;stroke-dasharray:2.0,2.0;" x1="496.2329" x2="632.312" y1="460.8906" y2="460.8906"/><text fill="#000000" font-family="sans-serif" font-size="13" lengthAdjust="spacing" textLength="18.7573" x="508.2329" y="455.8247">OK</text></g><g class="message" data-participant-1="BackEnd" data-participant-2="FrontEnd"><polygon fill="#181818" points="264.7676,486.0234,254.7676,490.0234,264.7676,494.0234,260.7676,490.0234" style="stroke:#181818;stroke-width:1;"/><line style="stroke:#181818;stroke-width:1;stroke-dasharray:2.0,2.0;" x1="258.7676" x2="490.2329" y1="490.0234" y2="490.0234"/><text fill="#000000" font-family="sans-serif" font-size="13" lengthAdjust="spacing" textLength="131.187" x="270.7676" y="484.9575">Entwurf gespeichert</text></g><g class="message" data-participant-1="FrontEnd" data-participant-2="Nutzer"><polygon fill="#181818" points="42.2764,515.1563,32.2764,519.1563,42.2764,523.1563,38.2764,519.1563" style="stroke:#181818;stroke-width:1;"/><line style="stroke:#181818;stroke-width:1;stroke-dasharray:2.0,2.0;" x1="36.2764" x2="252.7676" y1="519.1563" y2="519.1563"/><text fill="#000000" font-family="sans-serif" font-size="13" lengthAdjust="spacing" textLength="141.7051" x="48.2764" y="514.0903">Best&#228;tigung anzeigen</text></g><!--SRC=[VL91JiCm4Bpx5Nj2S8YuLmg7YC01H968XCJDJJQfLNSRsHjLwaDuGP_1BHzZAnA7GDthxipipDYwv9s3buuFw5Ih7PlIj9eO7joEEATgDinqkVaxkzUCjDAqKIfD8SCzkbL7ZKyAtBPMbXuq7T0qI92cwkSK97VX0YoW_wnhGZxBLW4ddC60K1xp0cuvWCQ5O88XGJth2c6IcbR9JApuhpCtUCwD88Om2_YGVFmBTQeY9zvthWPqdj7Q2_7V- -FQJdIuWhh_iZBHNIp-w_9DykDmudfhU31JdIBUnFeOFVaMJRb6Hz5Aba-nBaQD1aSLZhIIeUV-oAQH5msVG7q3]--></g></svg>